<mxfile host="app.diagrams.net" agent="Mozilla/5.0 (Windows NT 10.0; Win64; x64; rv:128.0) Gecko/20100101 Firefox/128.0" version="24.7.4">
  <diagram name="Page-1" id="EaQ36diOwJip6KEwVQeT">
    <mxGraphModel dx="733" dy="368" grid="1" gridSize="10" guides="1" tooltips="1" connect="1" arrows="1" fold="1" page="1" pageScale="1" pageWidth="850" pageHeight="1100" math="0" shadow="0">
      <root>
        <mxCell id="0" />
        <mxCell id="1" parent="0" />
        <mxCell id="mMHefkbeM8jbzhzsHDXi-25" style="edgeStyle=orthogonalEdgeStyle;rounded=0;orthogonalLoop=1;jettySize=auto;html=1;exitX=0;exitY=0.5;exitDx=0;exitDy=0;entryX=0.5;entryY=0;entryDx=0;entryDy=0;curved=1;strokeColor=#3399FF;" edge="1" parent="1" source="mMHefkbeM8jbzhzsHDXi-11" target="mMHefkbeM8jbzhzsHDXi-8">
          <mxGeometry relative="1" as="geometry" />
        </mxCell>
        <mxCell id="mMHefkbeM8jbzhzsHDXi-26" style="edgeStyle=orthogonalEdgeStyle;rounded=0;orthogonalLoop=1;jettySize=auto;html=1;exitX=1;exitY=0.5;exitDx=0;exitDy=0;entryX=0.5;entryY=0;entryDx=0;entryDy=0;curved=1;strokeColor=#3399FF;" edge="1" parent="1" source="mMHefkbeM8jbzhzsHDXi-12" target="mMHefkbeM8jbzhzsHDXi-8">
          <mxGeometry relative="1" as="geometry" />
        </mxCell>
        <mxCell id="mMHefkbeM8jbzhzsHDXi-30" style="edgeStyle=orthogonalEdgeStyle;rounded=0;orthogonalLoop=1;jettySize=auto;html=1;exitX=0.5;exitY=1;exitDx=0;exitDy=0;exitPerimeter=0;entryX=0.5;entryY=0;entryDx=0;entryDy=0;" edge="1" parent="1" source="mMHefkbeM8jbzhzsHDXi-1" target="mMHefkbeM8jbzhzsHDXi-2">
          <mxGeometry relative="1" as="geometry" />
        </mxCell>
        <mxCell id="mMHefkbeM8jbzhzsHDXi-1" value="Mulai" style="strokeWidth=2;html=1;shape=mxgraph.flowchart.start_1;whiteSpace=wrap;" vertex="1" parent="1">
          <mxGeometry x="350" y="50" width="100" height="60" as="geometry" />
        </mxCell>
        <mxCell id="mMHefkbeM8jbzhzsHDXi-29" style="edgeStyle=orthogonalEdgeStyle;rounded=0;orthogonalLoop=1;jettySize=auto;html=1;exitX=0.5;exitY=1;exitDx=0;exitDy=0;entryX=0.5;entryY=0;entryDx=0;entryDy=0;" edge="1" parent="1" source="mMHefkbeM8jbzhzsHDXi-2" target="mMHefkbeM8jbzhzsHDXi-3">
          <mxGeometry relative="1" as="geometry" />
        </mxCell>
        <mxCell id="mMHefkbeM8jbzhzsHDXi-2" value="Database&lt;br&gt;inisialisasi (load)" style="rounded=1;whiteSpace=wrap;html=1;absoluteArcSize=1;arcSize=14;strokeWidth=2;" vertex="1" parent="1">
          <mxGeometry x="350" y="130" width="100" height="40" as="geometry" />
        </mxCell>
        <mxCell id="mMHefkbeM8jbzhzsHDXi-3" value="Login" style="rounded=1;whiteSpace=wrap;html=1;absoluteArcSize=1;arcSize=14;strokeWidth=2;" vertex="1" parent="1">
          <mxGeometry x="350" y="190" width="100" height="40" as="geometry" />
        </mxCell>
        <mxCell id="mMHefkbeM8jbzhzsHDXi-27" style="edgeStyle=orthogonalEdgeStyle;rounded=0;orthogonalLoop=1;jettySize=auto;html=1;exitX=0.5;exitY=1;exitDx=0;exitDy=0;exitPerimeter=0;entryX=0.5;entryY=0;entryDx=0;entryDy=0;" edge="1" parent="1" source="mMHefkbeM8jbzhzsHDXi-4" target="mMHefkbeM8jbzhzsHDXi-10">
          <mxGeometry relative="1" as="geometry" />
        </mxCell>
        <mxCell id="mMHefkbeM8jbzhzsHDXi-35" value="Ya" style="edgeLabel;html=1;align=center;verticalAlign=middle;resizable=0;points=[];" vertex="1" connectable="0" parent="mMHefkbeM8jbzhzsHDXi-27">
          <mxGeometry x="-0.2759" y="3" relative="1" as="geometry">
            <mxPoint x="7" as="offset" />
          </mxGeometry>
        </mxCell>
        <mxCell id="mMHefkbeM8jbzhzsHDXi-33" style="edgeStyle=orthogonalEdgeStyle;rounded=0;orthogonalLoop=1;jettySize=auto;html=1;exitX=1;exitY=0.5;exitDx=0;exitDy=0;exitPerimeter=0;entryX=1;entryY=0.5;entryDx=0;entryDy=0;" edge="1" parent="1" source="mMHefkbeM8jbzhzsHDXi-4" target="mMHefkbeM8jbzhzsHDXi-3">
          <mxGeometry relative="1" as="geometry">
            <Array as="points">
              <mxPoint x="490" y="290" />
              <mxPoint x="490" y="210" />
            </Array>
          </mxGeometry>
        </mxCell>
        <mxCell id="mMHefkbeM8jbzhzsHDXi-34" value="Tidak" style="edgeLabel;html=1;align=center;verticalAlign=middle;resizable=0;points=[];" vertex="1" connectable="0" parent="mMHefkbeM8jbzhzsHDXi-33">
          <mxGeometry x="-0.7098" y="-2" relative="1" as="geometry">
            <mxPoint x="4" y="8" as="offset" />
          </mxGeometry>
        </mxCell>
        <mxCell id="mMHefkbeM8jbzhzsHDXi-4" value="Sesuai?" style="strokeWidth=2;html=1;shape=mxgraph.flowchart.decision;whiteSpace=wrap;" vertex="1" parent="1">
          <mxGeometry x="360" y="250" width="80" height="80" as="geometry" />
        </mxCell>
        <mxCell id="mMHefkbeM8jbzhzsHDXi-8" value="Database&lt;br&gt;Update" style="rounded=1;whiteSpace=wrap;html=1;absoluteArcSize=1;arcSize=14;strokeWidth=2;" vertex="1" parent="1">
          <mxGeometry x="360" y="540" width="80" height="60" as="geometry" />
        </mxCell>
        <mxCell id="mMHefkbeM8jbzhzsHDXi-16" style="edgeStyle=orthogonalEdgeStyle;rounded=0;orthogonalLoop=1;jettySize=auto;html=1;exitX=0.5;exitY=1;exitDx=0;exitDy=0;entryX=0.5;entryY=0;entryDx=0;entryDy=0;strokeColor=#3399FF;" edge="1" parent="1" source="mMHefkbeM8jbzhzsHDXi-10" target="mMHefkbeM8jbzhzsHDXi-8">
          <mxGeometry relative="1" as="geometry">
            <Array as="points">
              <mxPoint x="400" y="450" />
              <mxPoint x="400" y="450" />
            </Array>
          </mxGeometry>
        </mxCell>
        <mxCell id="mMHefkbeM8jbzhzsHDXi-45" value="Keluar" style="edgeLabel;html=1;align=center;verticalAlign=middle;resizable=0;points=[];fontColor=#3399FF;labelBackgroundColor=#FFCCE6;" vertex="1" connectable="0" parent="mMHefkbeM8jbzhzsHDXi-16">
          <mxGeometry x="0.619" y="1" relative="1" as="geometry">
            <mxPoint x="-1" y="-5" as="offset" />
          </mxGeometry>
        </mxCell>
        <mxCell id="mMHefkbeM8jbzhzsHDXi-17" style="edgeStyle=orthogonalEdgeStyle;rounded=0;orthogonalLoop=1;jettySize=auto;html=1;exitX=0.5;exitY=1;exitDx=0;exitDy=0;entryX=0.5;entryY=0;entryDx=0;entryDy=0;curved=1;strokeColor=#00CC00;" edge="1" parent="1" source="mMHefkbeM8jbzhzsHDXi-10" target="mMHefkbeM8jbzhzsHDXi-11">
          <mxGeometry relative="1" as="geometry" />
        </mxCell>
        <mxCell id="mMHefkbeM8jbzhzsHDXi-18" style="edgeStyle=orthogonalEdgeStyle;rounded=0;orthogonalLoop=1;jettySize=auto;html=1;exitX=0.5;exitY=1;exitDx=0;exitDy=0;entryX=0.5;entryY=0;entryDx=0;entryDy=0;curved=1;strokeColor=#00CC00;" edge="1" parent="1" source="mMHefkbeM8jbzhzsHDXi-10" target="mMHefkbeM8jbzhzsHDXi-12">
          <mxGeometry relative="1" as="geometry" />
        </mxCell>
        <mxCell id="mMHefkbeM8jbzhzsHDXi-10" value="Dashboard" style="shape=process;whiteSpace=wrap;html=1;backgroundOutline=1;" vertex="1" parent="1">
          <mxGeometry x="340" y="350" width="120" height="60" as="geometry" />
        </mxCell>
        <mxCell id="mMHefkbeM8jbzhzsHDXi-22" style="edgeStyle=orthogonalEdgeStyle;rounded=0;orthogonalLoop=1;jettySize=auto;html=1;exitX=0.5;exitY=1;exitDx=0;exitDy=0;entryX=0;entryY=0.5;entryDx=0;entryDy=0;curved=1;strokeColor=#00CC00;" edge="1" parent="1" source="mMHefkbeM8jbzhzsHDXi-11" target="mMHefkbeM8jbzhzsHDXi-14">
          <mxGeometry relative="1" as="geometry" />
        </mxCell>
        <mxCell id="mMHefkbeM8jbzhzsHDXi-39" style="edgeStyle=orthogonalEdgeStyle;rounded=0;orthogonalLoop=1;jettySize=auto;html=1;exitX=0;exitY=0.5;exitDx=0;exitDy=0;entryX=0.75;entryY=1;entryDx=0;entryDy=0;curved=1;fillColor=#f8cecc;strokeColor=#FF6666;" edge="1" parent="1" source="mMHefkbeM8jbzhzsHDXi-11" target="mMHefkbeM8jbzhzsHDXi-10">
          <mxGeometry relative="1" as="geometry" />
        </mxCell>
        <mxCell id="mMHefkbeM8jbzhzsHDXi-11" value="Data Orang" style="shape=process;whiteSpace=wrap;html=1;backgroundOutline=1;" vertex="1" parent="1">
          <mxGeometry x="460" y="480" width="90" height="40" as="geometry" />
        </mxCell>
        <mxCell id="mMHefkbeM8jbzhzsHDXi-19" style="edgeStyle=orthogonalEdgeStyle;rounded=0;orthogonalLoop=1;jettySize=auto;html=1;exitX=0.5;exitY=1;exitDx=0;exitDy=0;entryX=1;entryY=0.5;entryDx=0;entryDy=0;curved=1;strokeColor=#00CC00;" edge="1" parent="1" source="mMHefkbeM8jbzhzsHDXi-12" target="mMHefkbeM8jbzhzsHDXi-15">
          <mxGeometry relative="1" as="geometry" />
        </mxCell>
        <mxCell id="mMHefkbeM8jbzhzsHDXi-38" style="edgeStyle=orthogonalEdgeStyle;rounded=0;orthogonalLoop=1;jettySize=auto;html=1;exitX=1;exitY=0.5;exitDx=0;exitDy=0;entryX=0.25;entryY=1;entryDx=0;entryDy=0;curved=1;fillColor=#f8cecc;strokeColor=#FF6666;" edge="1" parent="1" source="mMHefkbeM8jbzhzsHDXi-12" target="mMHefkbeM8jbzhzsHDXi-10">
          <mxGeometry relative="1" as="geometry" />
        </mxCell>
        <mxCell id="mMHefkbeM8jbzhzsHDXi-12" value="Data Aset" style="shape=process;whiteSpace=wrap;html=1;backgroundOutline=1;" vertex="1" parent="1">
          <mxGeometry x="250" y="480" width="90" height="40" as="geometry" />
        </mxCell>
        <mxCell id="mMHefkbeM8jbzhzsHDXi-21" style="edgeStyle=orthogonalEdgeStyle;rounded=0;orthogonalLoop=1;jettySize=auto;html=1;exitX=0.5;exitY=0;exitDx=0;exitDy=0;entryX=1;entryY=0.5;entryDx=0;entryDy=0;curved=1;fillColor=#f8cecc;strokeColor=#FF6666;" edge="1" parent="1" source="mMHefkbeM8jbzhzsHDXi-14" target="mMHefkbeM8jbzhzsHDXi-11">
          <mxGeometry relative="1" as="geometry" />
        </mxCell>
        <mxCell id="mMHefkbeM8jbzhzsHDXi-14" value="Edit, Tampilkan" style="shape=process;whiteSpace=wrap;html=1;backgroundOutline=1;" vertex="1" parent="1">
          <mxGeometry x="550" y="520" width="90" height="40" as="geometry" />
        </mxCell>
        <mxCell id="mMHefkbeM8jbzhzsHDXi-20" style="edgeStyle=orthogonalEdgeStyle;rounded=0;orthogonalLoop=1;jettySize=auto;html=1;exitX=0.5;exitY=0;exitDx=0;exitDy=0;entryX=0;entryY=0.5;entryDx=0;entryDy=0;curved=1;fillColor=#f8cecc;strokeColor=#FF6666;" edge="1" parent="1" source="mMHefkbeM8jbzhzsHDXi-15" target="mMHefkbeM8jbzhzsHDXi-12">
          <mxGeometry relative="1" as="geometry" />
        </mxCell>
        <mxCell id="mMHefkbeM8jbzhzsHDXi-41" value="Kembali" style="edgeLabel;html=1;align=center;verticalAlign=middle;resizable=0;points=[];fontColor=#FF6666;" vertex="1" connectable="0" parent="mMHefkbeM8jbzhzsHDXi-20">
          <mxGeometry x="-0.0159" y="-4" relative="1" as="geometry">
            <mxPoint x="-12" y="-14" as="offset" />
          </mxGeometry>
        </mxCell>
        <mxCell id="mMHefkbeM8jbzhzsHDXi-15" value="Edit, Tampilkan" style="shape=process;whiteSpace=wrap;html=1;backgroundOutline=1;" vertex="1" parent="1">
          <mxGeometry x="160" y="520" width="90" height="40" as="geometry" />
        </mxCell>
        <mxCell id="mMHefkbeM8jbzhzsHDXi-28" style="edgeStyle=orthogonalEdgeStyle;rounded=0;orthogonalLoop=1;jettySize=auto;html=1;exitX=0.5;exitY=1;exitDx=0;exitDy=0;entryX=0.5;entryY=0;entryDx=0;entryDy=0;entryPerimeter=0;" edge="1" parent="1" source="mMHefkbeM8jbzhzsHDXi-3" target="mMHefkbeM8jbzhzsHDXi-4">
          <mxGeometry relative="1" as="geometry" />
        </mxCell>
        <mxCell id="mMHefkbeM8jbzhzsHDXi-31" value="Pilih Orang?" style="text;html=1;align=center;verticalAlign=middle;resizable=0;points=[];autosize=1;strokeColor=none;fillColor=none;fontColor=#00CC00;" vertex="1" parent="1">
          <mxGeometry x="425" y="418" width="90" height="30" as="geometry" />
        </mxCell>
        <mxCell id="mMHefkbeM8jbzhzsHDXi-32" value="Pilih Aset?" style="text;html=1;align=center;verticalAlign=middle;resizable=0;points=[];autosize=1;strokeColor=none;fillColor=none;fontColor=#00CC00;" vertex="1" parent="1">
          <mxGeometry x="290" y="418" width="80" height="30" as="geometry" />
        </mxCell>
        <mxCell id="mMHefkbeM8jbzhzsHDXi-36" value="Keluar" style="strokeWidth=2;html=1;shape=mxgraph.flowchart.terminator;whiteSpace=wrap;" vertex="1" parent="1">
          <mxGeometry x="365" y="620" width="70" height="40" as="geometry" />
        </mxCell>
        <mxCell id="mMHefkbeM8jbzhzsHDXi-37" style="edgeStyle=orthogonalEdgeStyle;rounded=0;orthogonalLoop=1;jettySize=auto;html=1;exitX=0.5;exitY=1;exitDx=0;exitDy=0;entryX=0.5;entryY=0;entryDx=0;entryDy=0;entryPerimeter=0;strokeColor=#3399FF;" edge="1" parent="1" source="mMHefkbeM8jbzhzsHDXi-8" target="mMHefkbeM8jbzhzsHDXi-36">
          <mxGeometry relative="1" as="geometry" />
        </mxCell>
        <mxCell id="mMHefkbeM8jbzhzsHDXi-42" value="Kembali" style="edgeLabel;html=1;align=center;verticalAlign=middle;resizable=0;points=[];fontColor=#FF6666;" vertex="1" connectable="0" parent="1">
          <mxGeometry x="595.0011086860958" y="490.000933435654" as="geometry" />
        </mxCell>
        <mxCell id="mMHefkbeM8jbzhzsHDXi-43" value="Kembali" style="edgeLabel;html=1;align=center;verticalAlign=middle;resizable=0;points=[];fontColor=#FF6666;" vertex="1" connectable="0" parent="1">
          <mxGeometry x="460.0011086860958" y="470.000933435654" as="geometry" />
        </mxCell>
        <mxCell id="mMHefkbeM8jbzhzsHDXi-44" value="Kembali" style="edgeLabel;html=1;align=center;verticalAlign=middle;resizable=0;points=[];fontColor=#FF6666;" vertex="1" connectable="0" parent="1">
          <mxGeometry x="340.0011086860958" y="470.000933435654" as="geometry" />
        </mxCell>
      </root>
    </mxGraphModel>
  </diagram>
</mxfile>
